<svg width="10" height="12" viewBox="0 0 10 12" fill="none" xmlns="http://www.w3.org/2000/svg">
<path d="M4.8999 5.09999C6.0999 5.09999 7.09991 4.09998 7.09991 2.89998C7.09991 1.69998 6.0999 0.699982 4.8999 0.699982C3.6999 0.699982 2.69992 1.69998 2.69992 2.89998C2.69992 4.19998 3.6999 5.09999 4.8999 5.09999Z" fill="#E5E5E5"/>
<path d="M7.7999 6.19998C7.4999 6.09998 6.59991 5.99998 6.59991 5.99998C6.49991 5.99998 6.3999 5.99999 6.3999 6.09999L5.09991 9.69998C4.99991 9.89998 4.69992 9.89998 4.69992 9.69998L3.3999 6.09999C3.3999 5.99999 3.29992 5.99998 3.19992 5.99998C3.19992 5.99998 2.29991 6.09998 1.99991 6.19998C1.19991 6.39998 0.699921 7.19999 0.699921 8.09999V11.1C0.699921 11.6 1.09991 11.9 1.49991 11.9H8.49991C8.99991 11.9 9.2999 11.5 9.2999 11.1V8.09999C9.1999 7.19999 8.5999 6.49998 7.7999 6.19998Z" fill="#E5E5E5"/>
<path d="M5.39989 5.89998C5.29989 5.79998 5.29991 5.79999 5.19991 5.79999H4.5999C4.4999 5.79999 4.39989 5.79998 4.39989 5.89998C4.29989 5.99998 4.29989 6.09998 4.39989 6.19998L4.69991 6.69998L4.5999 7.89998L4.89989 8.69998C4.89989 8.79998 4.9999 8.79998 5.0999 8.69998L5.39989 7.89998L5.29988 6.69998L5.5999 6.19998C5.4999 6.19998 5.49989 5.99998 5.39989 5.89998Z" fill="#E5E5E5"/>
</svg>
