<svg width="13" height="11" viewBox="0 0 13 11" fill="none" xmlns="http://www.w3.org/2000/svg">
<path d="M11.5999 2.29996H9.09991V1.79996C9.09991 1.19996 8.59991 0.799965 8.09991 0.799965H5.09991C4.49991 0.799965 4.09991 1.29996 4.09991 1.79996V2.29996H1.59991C0.999915 2.29996 0.599915 2.79996 0.599915 3.29996V4.79996C0.599915 5.39996 1.09991 5.79996 1.59991 5.79996H5.59991V5.49998C5.59991 5.39998 5.6999 5.19999 5.8999 5.19999H7.3999C7.4999 5.19999 7.69992 5.29998 7.69992 5.49998V5.79996H11.6999C12.2999 5.79996 12.6999 5.29996 12.6999 4.79996V3.29996C12.5999 2.79996 12.1999 2.29996 11.5999 2.29996ZM5.09991 2.29996V1.79996H8.09991V2.29996H5.09991Z" fill="#E5E5E5"/>
<path d="M12.4999 6.09997C12.3999 6.09997 12.2999 6.09997 12.1999 6.09997C11.9999 6.19997 11.7999 6.29995 11.5999 6.29995H7.59991V7.09997C7.59991 7.19997 7.4999 7.39996 7.2999 7.39996H5.7999C5.6999 7.39996 5.49991 7.29997 5.49991 7.09997V6.29995H1.49991C1.29991 6.29995 1.0999 6.19997 0.899902 6.09997C0.799902 5.99997 0.699915 5.99997 0.599915 6.09997C0.499915 6.09997 0.499908 6.19995 0.499908 6.29995V9.79995C0.499908 10.4 0.999908 10.8 1.49991 10.8H11.4999C12.0999 10.8 12.4999 10.3 12.4999 9.79995V6.29995C12.5999 6.29995 12.5999 6.19997 12.4999 6.09997Z" fill="#E5E5E5"/>
</svg>
